# xmcd
#
# Track frame offsets: 
#        150
#        19460
#        39037
#        55246
#        78314
#        98042
#        119786
#        134703
#
# Disc length: 2080 seconds
#
# Revision: 0
# Processed by: cddbd v1.5.2PL0 Copyright (c) Steve Scherf et al.
# Submitted via: ExactAudioCopyFreeDBPlugin 1.0
#
DISCID=6a081e08
DTITLE=Archspire - The Lucid Collective
DYEAR=2014
DGENRE=Technical Death Metal
TTITLE0=Lucid Collection Somnambulation
TTITLE1=Scream Feeding
TTITLE2=The Plague of Am - Cogito Ergo Sum (I Think Therefore I Am)
TTITLE3=Fathom Infinite Depth
TTITLE4=Join Us Beyond
TTITLE5=Seven Crowns and the Oblivion Chain
TTITLE6=Kairos Chamber
TTITLE7=Spontaneous Generation
EXTD=
EXTT0=
EXTT1=
EXTT2=
EXTT3=
EXTT4=
EXTT5=
EXTT6=
EXTT7=
PLAYORDER=
